<svg xmlns="http://www.w3.org/2000/svg" viewBox="0 0 120 120" width="120" height="120"><defs><radialGradient id="greenBall" cx="0.35" cy="0.3" r="0.8"><stop offset="0" stop-color="#A7E6C2"/><stop offset="1" stop-color="#2F8C57"/></radialGradient><linearGradient id="padGreenLight" x1="0.2" y1="0" x2="0.9" y2="1"><stop offset="0" stop-color="#A7E6C2"/><stop offset="1" stop-color="#63C88A"/></linearGradient></defs>
<g id="quiz-potty"><circle cx="60" cy="60" r="58" fill="#E3F5EA"/><g transform="translate(60 96) scale(0.34)"><path d="M -104 -78 q 0 -22 22 -22 h 164 q 22 0 22 22 v 34 q 0 56 -104 56 q -104 0 -104 -56 Z" fill="url(#greenBall)"/><ellipse cx="0" cy="-96" rx="112" ry="34" fill="#2F8C57"/><ellipse cx="0" cy="-100" rx="112" ry="34" fill="url(#padGreenLight)"/><ellipse cx="0" cy="-102" rx="62" ry="17" fill="#E0F4FC"/><path d="M -96 -108 q -14 -66 34 -66 h 124 q 48 0 34 66 q -96 -20 -192 0 Z" fill="url(#greenBall)"/><path d="M -76 -122 q -8 -36 22 -36 h 108 q 30 0 22 36 Z" fill="#FFFFFF" opacity="0.2"/></g></g></svg>
