<svg xmlns="http://www.w3.org/2000/svg" viewBox="0 0 120 120" width="120" height="120">
<defs><linearGradient id="chuteGrad" x1="0.1" y1="0" x2="0.9" y2="1"><stop offset="0" stop-color="#FFC0B2"/><stop offset="1" stop-color="#C96755"/></linearGradient><linearGradient id="ground" x1="0" y1="0" x2="0" y2="1"><stop offset="0" stop-color="#A8DFC0"/><stop offset="0.5" stop-color="#8FDCAC"/><stop offset="1" stop-color="#7ECBA0"/></linearGradient><clipPath id="iconDiscClip"><circle cx="60" cy="60" r="58"/></clipPath></defs>
<g id="quiz-slide"><circle cx="60" cy="60" r="58" fill="#E3F5EA"/>
    <g clip-path="url(#iconDiscClip)">
      <path d="M 0 94 q 30 -10 60 -10 q 30 0 60 10 v 26 h -120 Z" fill="url(#ground)"/>
    </g>
    <rect x="70" y="50" width="8" height="46" rx="4" fill="#6F63C0"/>
    <rect x="92" y="50" width="8" height="46" rx="4" fill="#6F63C0"/>
    <rect x="72" y="58" width="26" height="6" rx="3" fill="#AFA5EF"/><rect x="72" y="70" width="26" height="6" rx="3" fill="#AFA5EF"/><rect x="72" y="82" width="26" height="6" rx="3" fill="#AFA5EF"/>
    <rect x="63" y="42" width="40" height="9" rx="4.5" fill="#AFA5EF"/>
    <path d="M 66 46 C 46 54 32 72 28 94" stroke="#C96755" stroke-width="17" stroke-linecap="round" fill="none"/>
    <path d="M 66 46 C 46 54 32 72 28 94" stroke="url(#chuteGrad)" stroke-width="11" stroke-linecap="round" fill="none"/>
    <path d="M 62 40 C 44 48 30 66 25 88" stroke="#C96755" stroke-width="5" stroke-linecap="round" fill="none" opacity="0.7"/></g>
</svg>
