<svg xmlns="http://www.w3.org/2000/svg" viewBox="0 0 200 200" width="200" height="200">
<defs><radialGradient id="yellowBall" cx="0.35" cy="0.3" r="0.8"><stop offset="0" stop-color="#FFE9A8"/><stop offset="1" stop-color="#FFC53D"/></radialGradient></defs>
<g id="item-duckling">
    <ellipse cx="100" cy="150" rx="70" ry="14" fill="#15566F" opacity="0.12"/>
    <path d="M 34 132 q 6 -50 62 -50 q 56 0 62 50 q -62 20 -124 0 Z" fill="url(#yellowBall)"/>
    <circle cx="130" cy="78" r="36" fill="url(#yellowBall)"/>
    <circle cx="119" cy="66" r="13" fill="#FFF6D4" opacity="0.7"/>
    <path d="M 160 78 q 22 -6 22 8 q 0 12 -22 8 Z" fill="#FF9F8F"/>
    <circle cx="142" cy="70" r="8" fill="#FFFFFF"/><circle cx="144" cy="71" r="4.6" fill="#243047"/>
    <path d="M 62 108 q 26 -14 48 4 q -22 20 -48 -4 Z" fill="#FFC53D" opacity="0.85"/>
    <path d="M 40 140 q 60 20 120 0" stroke="#FFFFFF" stroke-width="7" stroke-linecap="round" fill="none" opacity="0.5"/></g>
</svg>
