<svg xmlns="http://www.w3.org/2000/svg" viewBox="0 0 512 512" width="512" height="512">
<g transform="translate(38.5 22.55) scale(2.9)">
  <ellipse cx="75" cy="160.00" rx="40" ry="3.6" fill="#243047" opacity="0.120"/>
  <g transform="translate(0 0) translate(75 100) rotate(4) translate(-75 -100)">
    <g>
    <rect x="98" y="84" width="22" height="30" rx="9" fill="#C98A5B"/>
    <path d="M 92 78 q 12 4 16 20" fill="none" stroke="#A76F46" stroke-width="4" stroke-linecap="round"/>
  </g>
    <g>
    <line x1="55" y1="122" x2="44" y2="146" stroke="#63C88A" stroke-width="26" stroke-linecap="round"/>
    <ellipse cx="46" cy="149" rx="14" ry="8.5" fill="#63C88A"/>
    <line x1="46" y1="149" x2="31.0" y2="149.7" stroke="#63C88A" stroke-width="12" stroke-linecap="round"/><line x1="46" y1="149" x2="33.6" y2="154.6" stroke="#63C88A" stroke-width="12" stroke-linecap="round"/><line x1="46" y1="149" x2="39.4" y2="158.0" stroke="#63C88A" stroke-width="11.2" stroke-linecap="round"/>
    <line x1="41.3" y1="150.7" x2="32.8" y2="153.1" stroke="#45A971" stroke-width="1.6" stroke-linecap="round" opacity="0.8"/><line x1="42.8" y1="152.8" x2="37.0" y2="158.2" stroke="#45A971" stroke-width="1.6" stroke-linecap="round" opacity="0.8"/>
  </g>
    <g>
    <line x1="95" y1="122" x2="104" y2="140" stroke="#63C88A" stroke-width="26" stroke-linecap="round"/>
    <ellipse cx="102" cy="143" rx="14" ry="8.5" fill="#63C88A"/>
    <line x1="102" y1="143" x2="114.0" y2="143.7" stroke="#63C88A" stroke-width="12" stroke-linecap="round"/><line x1="102" y1="143" x2="111.9" y2="148.6" stroke="#63C88A" stroke-width="12" stroke-linecap="round"/><line x1="102" y1="143" x2="107.3" y2="152.0" stroke="#63C88A" stroke-width="11.2" stroke-linecap="round"/>
    <line x1="106.7" y1="144.7" x2="112.5" y2="147.1" stroke="#45A971" stroke-width="1.6" stroke-linecap="round" opacity="0.8"/><line x1="105.2" y1="146.8" x2="109.2" y2="152.2" stroke="#45A971" stroke-width="1.6" stroke-linecap="round" opacity="0.8"/>
  </g>
    <path d="M 46 58 H 104 V 101 A 26 26 0 0 1 78 127 H 72 A 26 26 0 0 1 46 101 Z" fill="#63C88A"/>
    <ellipse cx="75" cy="104" rx="24" ry="23" fill="#FFF3D4"/>
    <g>
    <line x1="48" y1="86" x2="30" y2="110" stroke="#63C88A" stroke-width="15" stroke-linecap="round"/>
    <circle cx="30" cy="110" r="9.5" fill="#63C88A"/>
    <line x1="30" y1="110" x2="32.7" y2="121.7" stroke="#63C88A" stroke-width="10.5" stroke-linecap="round"/><line x1="30" y1="110" x2="22.8" y2="119.6" stroke="#63C88A" stroke-width="10.5" stroke-linecap="round"/><line x1="30" y1="110" x2="18.0" y2="110.7" stroke="#63C88A" stroke-width="10.5" stroke-linecap="round"/>
  </g>
    <g>
    <line x1="102" y1="86" x2="120" y2="80" stroke="#63C88A" stroke-width="15" stroke-linecap="round"/>
    <circle cx="120" cy="80" r="9.5" fill="#63C88A"/>
    <line x1="120" y1="80" x2="124.4" y2="68.8" stroke="#63C88A" stroke-width="10.5" stroke-linecap="round"/><line x1="120" y1="80" x2="131.4" y2="76.2" stroke="#63C88A" stroke-width="10.5" stroke-linecap="round"/><line x1="120" y1="80" x2="130.2" y2="86.3" stroke="#63C88A" stroke-width="10.5" stroke-linecap="round"/>
  </g>
    <g transform="rotate(0 75 50)">
    <ellipse cx="75" cy="40" rx="44" ry="33" fill="#63C88A"/>
    <ellipse cx="75" cy="56" rx="61" ry="27" fill="#63C88A"/>
    <circle cx="42.4" cy="25.7" r="20.5" fill="#63C88A"/>
    <circle cx="108.4" cy="25.7" r="20.5" fill="#63C88A"/>
  </g>
    <g transform="rotate(0 75 50)">
      
    <ellipse cx="75.3" cy="19.4" rx="4.4" ry="2.6" fill="#45A971"/>
    <ellipse cx="72.8" cy="26.2" rx="2.6" ry="1.9" fill="#45A971"/>
    <ellipse cx="80.6" cy="24.6" rx="3.0" ry="1.6" fill="#45A971"/>
      <g>
      <clipPath id="eyeClip42"><circle cx="42.4" cy="25.7" r="16.5"/></clipPath>
      <circle cx="42.4" cy="25.7" r="16.5" fill="#FFFFFF"/>
      <g clip-path="url(#eyeClip42)">
        <circle cx="44.4" cy="26.7" r="12.3" fill="#243047"/>
        <circle cx="47.6" cy="21.7" r="3.4" fill="#FFFFFF"/>
        
      </g>
    </g><g>
      <clipPath id="eyeClip108"><circle cx="108.4" cy="25.7" r="16.5"/></clipPath>
      <circle cx="108.4" cy="25.7" r="16.5" fill="#FFFFFF"/>
      <g clip-path="url(#eyeClip108)">
        <circle cx="110.4" cy="26.7" r="12.3" fill="#243047"/>
        <circle cx="113.60000000000001" cy="21.7" r="3.4" fill="#FFFFFF"/>
        
      </g>
    </g>
      
    <circle cx="32" cy="51" r="7.6" fill="#FF9F8F"/>
    <circle cx="118" cy="51" r="7.6" fill="#FF9F8F"/>
      
    <circle cx="67.4" cy="41" r="2.1" fill="#1B5E39"/>
    <circle cx="82.6" cy="41" r="2.1" fill="#1B5E39"/>
      <g transform="translate(75 50) scale(0.72) translate(-75 -50)">
    <clipPath id="mouthCliptalk">
      <path d="M 53 47.5 Q 75 52 97 47.5 C 96 60 88 69.5 75 69.5 C 62 69.5 54 60 53 47.5 Z"/>
    </clipPath>
    <path d="M 53 47.5 Q 75 52 97 47.5 C 96 60 88 69.5 75 69.5 C 62 69.5 54 60 53 47.5 Z" fill="#8A3F30"/>
    <ellipse cx="75" cy="66" rx="15" ry="7.5" fill="#FF6F7D" clip-path="url(#mouthCliptalk)"/>
  </g>
      
    </g>
    
    
  </g>
</g>
</svg>
